{
	"bufferViews":[{
		"buffer":0,
		"byteOffset":0,
		"byteLength":360,
		"target":34963
	},
	{
		"buffer":0,
		"byteOffset":360,
		"byteLength":3072,
		"target":34962,
		"byteStride":32
	}],
	"nodes":[{
		"name":"glitter-ornament.ai",
		"translation":[0.0,
		15.425626754760743,
		0.0],
		"rotation":[0.0,
		0.0,
		0.0,
		-1.0],
		"scale":[1.0,
		1.0,
		1.0],
		"children":[1]
	},
	{
		"name":"Null",
		"children":[2]
	},
	{
		"name":"Layer 1",
		"children":[3]
	},
	{
		"name":"Spline",
		"translation":[-16.371414184570314,
		-44.93573760986328,
		0.0],
		"rotation":[0.0,
		0.0,
		0.0,
		-1.0],
		"scale":[1.0,
		1.0,
		1.0],
		"mesh":0
	}],
	"asset":{
		"version":"2.0",
		"generator":"Created using the official Cinema 4D glTF Exporter 1.000x284978"
	},
	"scenes":[{
		"nodes":[0]
	}],
	"meshes":[{
		"name":"Spline",
		"primitives":[{
			"attributes":{
				"POSITION":1,
				"NORMAL":2,
				"TEXCOORD_0":3
			},
			"indices":0
		}]
	}],
	"accessors":[{
		"bufferView":0,
		"type":"SCALAR",
		"max":[95],
		"componentType":5123,
		"min":[0],
		"count":180,
		"byteOffset":0
	},
	{
		"bufferView":1,
		"type":"VEC3",
		"max":[31.026159286499025,
		61.62278747558594,
		0.0],
		"componentType":5126,
		"min":[1.4576317071914673,
		27.830169677734376,
		-3.3527777194976808],
		"count":96,
		"byteOffset":0
	},
	{
		"bufferView":1,
		"type":"VEC3",
		"max":[0.9905630350112915,
		0.9861894249916077,
		1.0],
		"componentType":5126,
		"min":[-0.9902136921882629,
		-0.9861899614334106,
		-1.0],
		"count":96,
		"byteOffset":12
	},
	{
		"bufferView":1,
		"type":"VEC2",
		"max":[1.0,
		1.0],
		"componentType":5126,
		"min":[0.0,
		0.0],
		"count":96,
		"byteOffset":24
	}],
	"buffers":[{
		"uri":"data:application/octet-stream;base64,",
		"byteLength":3432
	}]
}